<svg width="30" height="31" viewBox="0 0 30 31" fill="none" xmlns="http://www.w3.org/2000/svg">
<path d="M13.022 13.3374C12.281 13.3374 11.696 14.0091 11.696 14.8285C11.696 15.6479 12.294 16.3196 13.022 16.3196C13.763 16.3196 14.348 15.6479 14.348 14.8285C14.361 14.0091 13.763 13.3374 13.022 13.3374ZM17.767 13.3374C17.026 13.3374 16.441 14.0091 16.441 14.8285C16.441 15.6479 17.039 16.3196 17.767 16.3196C18.508 16.3196 19.093 15.6479 19.093 14.8285C19.093 14.0091 18.508 13.3374 17.767 13.3374Z" fill="white"/>
<path d="M24.085 2.06689H6.665C5.196 2.06689 4 3.30276 4 4.83416V22.996C4 24.5274 5.196 25.7633 6.665 25.7633H21.407L20.718 23.2781L22.382 24.8767L23.955 26.3812L26.75 28.9336V4.83416C26.75 3.30276 25.554 2.06689 24.085 2.06689ZM19.067 19.6108C19.067 19.6108 18.599 19.0332 18.209 18.5227C19.912 18.0257 20.562 16.9242 20.562 16.9242C20.029 17.2869 19.522 17.5421 19.067 17.7167C18.417 17.9988 17.793 18.1869 17.182 18.2944C16.0686 18.5062 14.9268 18.5016 13.815 18.2809C13.1623 18.149 12.5226 17.9556 11.904 17.7033C11.5779 17.5737 11.2608 17.4211 10.955 17.2466C10.916 17.2197 10.877 17.2063 10.838 17.1794C10.812 17.166 10.799 17.1525 10.786 17.1391C10.552 17.0048 10.422 16.9107 10.422 16.9107C10.422 16.9107 11.046 17.9854 12.697 18.4959C12.307 19.0063 11.826 19.6108 11.826 19.6108C8.953 19.5168 7.861 17.569 7.861 17.569C7.861 13.2434 9.733 9.73733 9.733 9.73733C11.605 8.28653 13.386 8.32683 13.386 8.32683L13.516 8.48803C11.176 9.18656 10.097 10.2478 10.097 10.2478C10.097 10.2478 10.383 10.0866 10.864 9.85823C12.255 9.22686 13.36 9.05223 13.815 9.01193C13.893 8.99849 13.958 8.98506 14.036 8.98506C16.2903 8.66977 18.583 9.1125 20.575 10.2478C20.575 10.2478 19.548 9.24029 17.338 8.54176L17.52 8.32683C17.52 8.32683 19.301 8.28653 21.173 9.73733C21.173 9.73733 23.045 13.2434 23.045 17.569C23.045 17.569 21.94 19.5168 19.067 19.6108Z" fill="white"/>
</svg>
