<svg width="30" height="31" viewBox="0 0 30 31" fill="none" xmlns="http://www.w3.org/2000/svg">
<path d="M26.1838 10.7274C26.1712 9.74914 25.9939 8.78059 25.66 7.86509C25.3705 7.09287 24.9282 6.39155 24.3615 5.80595C23.7948 5.22035 23.1161 4.76334 22.3688 4.46413C21.4942 4.12488 20.5702 3.94144 19.6363 3.92163C18.4338 3.86609 18.0525 3.85059 15 3.85059C11.9475 3.85059 11.5563 3.85059 10.3625 3.92163C9.42898 3.94159 8.50546 4.12502 7.63128 4.46413C6.88385 4.76313 6.20505 5.22007 5.63832 5.8057C5.07158 6.39132 4.62939 7.09274 4.34003 7.86509C4.01107 8.76813 3.83393 9.72265 3.81628 10.6874C3.76253 11.9313 3.74628 12.3252 3.74628 15.4795C3.74628 18.6337 3.74628 19.0367 3.81628 20.2715C3.83503 21.2377 4.01128 22.191 4.34003 23.0964C4.62987 23.8685 5.0724 24.5697 5.63932 25.155C6.20625 25.7404 6.88511 26.1972 7.63253 26.4961C8.50432 26.849 9.42799 27.0455 10.3638 27.0773C11.5675 27.1329 11.9488 27.1497 15.0013 27.1497C18.0538 27.1497 18.445 27.1497 19.6388 27.0773C20.5727 27.0583 21.4967 26.8753 22.3713 26.5361C23.1184 26.2366 23.7969 25.7794 24.3636 25.1939C24.9302 24.6083 25.3726 23.9072 25.6625 23.1352C25.9913 22.231 26.1675 21.2778 26.1863 20.3103C26.24 19.0677 26.2563 18.6738 26.2563 15.5182C26.2538 12.364 26.2538 11.9635 26.1838 10.7274ZM14.9925 21.4444C11.8 21.4444 9.21378 18.7719 9.21378 15.473C9.21378 12.1741 11.8 9.50163 14.9925 9.50163C16.5251 9.50163 17.995 10.1308 19.0787 11.2506C20.1624 12.3705 20.7713 13.8893 20.7713 15.473C20.7713 17.0567 20.1624 18.5756 19.0787 19.6954C17.995 20.8153 16.5251 21.4444 14.9925 21.4444ZM21.0013 10.6732C20.255 10.6732 19.6538 10.0506 19.6538 9.28075C19.6538 9.09798 19.6886 8.917 19.7563 8.74815C19.824 8.57929 19.9232 8.42586 20.0483 8.29662C20.1733 8.16738 20.3218 8.06487 20.4852 7.99492C20.6486 7.92498 20.8238 7.88898 21.0007 7.88898C21.1775 7.88898 21.3527 7.92498 21.5161 7.99492C21.6795 8.06487 21.828 8.16738 21.953 8.29662C22.0781 8.42586 22.1773 8.57929 22.245 8.74815C22.3127 8.917 22.3475 9.09798 22.3475 9.28075C22.3475 10.0506 21.745 10.6732 21.0013 10.6732Z" fill="white"/>
<path d="M14.9925 19.352C17.0657 19.352 18.7463 17.6154 18.7463 15.4731C18.7463 13.3309 17.0657 11.5942 14.9925 11.5942C12.9194 11.5942 11.2388 13.3309 11.2388 15.4731C11.2388 17.6154 12.9194 19.352 14.9925 19.352Z" fill="white"/>
</svg>
