<svg width="70" height="70" viewBox="0 0 70 70" fill="none" xmlns="http://www.w3.org/2000/svg">
<path d="M65.3333 4.66667H4.66666V0H65.3333V4.66667Z" fill="#F7301D"/>
<path d="M4.71333 11.2095C4.81901 10.6807 5.10457 10.2049 5.52144 9.8629C5.93832 9.52089 6.46078 9.33382 6.99999 9.3335H63C63.5392 9.33382 64.0617 9.52089 64.4785 9.8629C64.8954 10.2049 65.181 10.6807 65.2867 11.2095L69.9533 34.5428C70.021 34.8812 70.0127 35.2304 69.9291 35.5652C69.8456 35.9 69.6888 36.2121 69.4701 36.479C69.2514 36.7459 68.9762 36.961 68.6643 37.1088C68.3525 37.2565 68.0117 37.3333 67.6667 37.3335H2.33333C1.98825 37.3333 1.64751 37.2565 1.33566 37.1088C1.02382 36.961 0.748625 36.7459 0.529913 36.479C0.311201 36.2121 0.154416 35.9 0.0708516 35.5652C-0.0127124 35.2304 -0.0209741 34.8812 0.0466615 34.5428L4.71333 11.2095Z" fill="#F7301D"/>
<path d="M4.66667 42V65.3333H0V70H70V65.3333H65.3333V42H56V51.3333H14V42H4.66667Z" fill="#F7301D"/>
<path d="M18.6667 42H51.3333V46.6667H18.6667V42Z" fill="#F7301D"/>
</svg>
