<svg width="30" height="31" viewBox="0 0 30 31" fill="none" xmlns="http://www.w3.org/2000/svg">
<path d="M29.5538 6.37696C28.51 6.85487 27.3888 7.17779 26.21 7.32375C27.4263 6.57173 28.3362 5.38814 28.77 3.99383C27.6273 4.69519 26.3767 5.18887 25.0725 5.45341C24.1955 4.48578 23.0338 3.84442 21.7679 3.6289C20.502 3.41338 19.2026 3.63577 18.0716 4.26153C16.9405 4.8873 16.041 5.88142 15.5127 7.08957C14.9844 8.29772 14.8569 9.6523 15.15 10.943C12.8346 10.8229 10.5695 10.201 8.50179 9.11775C6.43404 8.0345 4.60982 6.51408 3.14751 4.65516C2.64751 5.54641 2.36001 6.57975 2.36001 7.68025C2.35946 8.67095 2.59556 9.64648 3.04736 10.5203C3.49917 11.3941 4.15272 12.1391 4.95001 12.6893C4.02536 12.6589 3.12111 12.4008 2.31251 11.9363V12.0138C2.31242 13.4033 2.77756 14.75 3.62899 15.8255C4.48043 16.901 5.66573 17.6389 6.98376 17.9141C6.12599 18.154 5.22669 18.1893 4.35376 18.0175C4.72564 19.213 5.45001 20.2585 6.42547 21.0076C7.40094 21.7566 8.57866 22.1717 9.79377 22.1947C7.73106 23.8679 5.18362 24.7756 2.56126 24.7716C2.09674 24.7717 1.63261 24.7437 1.17126 24.6876C3.83311 26.4561 6.93169 27.3947 10.0963 27.3911C20.8088 27.3911 26.665 18.2228 26.665 10.2713C26.665 10.013 26.6588 9.75208 26.6475 9.49375C27.7866 8.64251 28.7699 7.5884 29.5513 6.38083L29.5538 6.37696Z" fill="white"/>
</svg>
