<svg width="117" height="70" viewBox="0 0 117 70" fill="none" xmlns="http://www.w3.org/2000/svg">
<path d="M113.446 16.2608L62.5976 0.638472C59.8268 -0.212824 56.8373 -0.212824 54.0683 0.638472L3.21834 16.2608C-1.07278 17.5787 -1.07278 23.2534 3.21834 24.5714L12.0831 27.2948C10.1381 29.6992 8.94226 32.6323 8.82377 35.8442C7.06831 36.8505 5.83238 38.6661 5.83238 40.8335C5.83238 42.7986 6.86779 44.452 8.35893 45.5093L3.70505 66.4508C3.30037 68.2719 4.68578 70 6.55061 70H16.7789C18.6456 70 20.031 68.2719 19.6263 66.4508L14.9724 45.5093C16.4636 44.452 17.499 42.7986 17.499 40.8335C17.499 38.7244 16.3196 36.9599 14.6443 35.9354C14.7828 33.1974 16.1828 30.7766 18.4159 29.2417L54.0664 40.1955C55.718 40.7023 58.8862 41.3348 62.5958 40.1955L113.446 24.5732C117.739 23.2534 117.739 17.5805 113.446 16.2608V16.2608ZM64.3093 45.7718C59.1086 47.3686 54.6771 46.4863 52.3529 45.7718L25.9171 37.6507L23.3323 58.3334C23.3323 64.7774 39.002 70 58.332 70C77.6621 70 93.3318 64.7774 93.3318 58.3334L90.7469 37.6489L64.3093 45.7718V45.7718Z" fill="#F7301D"/>
</svg>
