<svg width="81" height="71" viewBox="0 0 81 71" fill="none" xmlns="http://www.w3.org/2000/svg">
<path d="M51.152 7.86053C51.3277 7.35871 51.3431 6.81469 51.196 6.30374C51.049 5.7928 50.7468 5.34017 50.3313 5.00849L49.4182 4.34678C46.2134 2.22875 42.5745 0.856271 38.7692 0.33034C31.8802 -0.582721 23.1036 1.29982 14.568 11.0665H9.16145C8.82406 11.0666 8.48999 11.1332 8.17839 11.2626C7.8668 11.392 7.58379 11.5816 7.34559 11.8205L0.748982 18.4223C0.269727 18.903 0.000610352 19.5542 0.000610352 20.233C0.000610352 20.9118 0.269727 21.563 0.748982 22.0437L13.9371 35.2729C14.1753 35.5117 14.4583 35.7012 14.7699 35.8305C15.0815 35.9598 15.4156 36.0264 15.7529 36.0264C16.0903 36.0264 16.4243 35.9598 16.7359 35.8305C17.0475 35.7012 17.3305 35.5117 17.5688 35.2729L24.1654 28.6557C24.6449 28.1751 24.9142 27.5239 24.9143 26.845V23.5672L67.9359 69.0817C68.1549 69.379 68.4356 69.6254 68.7586 69.8042C69.0817 69.983 69.4396 70.09 69.8078 70.1177C70.176 70.1455 70.5458 70.0934 70.892 69.9651C71.2383 69.8368 71.5527 69.6352 71.8138 69.3741L79.5082 61.6798C79.9733 61.2144 80.2418 60.5879 80.258 59.9301C80.2742 59.2723 80.037 58.6334 79.5954 58.1455L32.7677 13.8775C36.5994 11.5384 41.8572 9.5738 48.7308 9.5738C49.2621 9.57418 49.7805 9.40954 50.2142 9.10264C50.6479 8.79573 50.9756 8.3617 51.152 7.86053Z" fill="#F7301D"/>
</svg>
