<svg width="30" height="31" viewBox="0 0 30 31" fill="none" xmlns="http://www.w3.org/2000/svg">
<g clip-path="url(#clip0)">
<path d="M29.375 8.40477C29.2051 7.77861 28.8742 7.21172 28.4175 6.76435C27.9478 6.30323 27.3722 5.97338 26.745 5.80594C24.3975 5.16656 14.9925 5.16656 14.9925 5.16656C11.0716 5.12047 7.15176 5.32321 3.25498 5.77364C2.62772 5.95346 2.05318 6.29068 1.58248 6.75531C1.11998 7.21514 0.784978 7.78219 0.609978 8.40348C0.189594 10.7436 -0.014657 13.1198 -2.1978e-05 15.4999C-0.015022 17.8779 0.188728 20.2532 0.609978 22.5963C0.781228 23.215 1.11498 23.7795 1.57873 24.2354C2.04248 24.6914 2.61998 25.0208 3.25498 25.1951C5.63373 25.8332 14.9925 25.8332 14.9925 25.8332C18.9183 25.8794 22.8432 25.6766 26.745 25.2261C27.3722 25.0587 27.9478 24.7288 28.4175 24.2677C28.88 23.8118 29.2087 23.2447 29.3737 22.6273C29.8051 20.288 30.0148 17.9109 30 15.5296C30.0324 13.1382 29.823 10.7499 29.375 8.40348V8.40477ZM12.0025 19.9226V11.0785L19.8275 15.5012L12.0025 19.9226Z" fill="white"/>
</g>
<defs>
<clipPath id="clip0">
<rect width="30" height="31" fill="white"/>
</clipPath>
</defs>
</svg>
