<svg width="24" height="24" viewBox="0 0 24 24" fill="none" xmlns="http://www.w3.org/2000/svg">
<path d="M9.59299 10.971C9.05099 10.971 8.62399 11.446 8.62399 12.026C8.62399 12.604 9.06099 13.081 9.59299 13.081C10.134 13.081 10.561 12.604 10.561 12.026C10.572 11.445 10.134 10.971 9.59299 10.971ZM13.061 10.971C12.519 10.971 12.092 11.446 12.092 12.026C12.092 12.604 12.529 13.081 13.061 13.081C13.602 13.081 14.029 12.604 14.029 12.026C14.028 11.445 13.602 10.971 13.061 10.971Z" fill="white"/>
<path d="M17.678 3H4.94701C4.69067 3.00066 4.43696 3.0518 4.20039 3.1505C3.96381 3.2492 3.74899 3.39354 3.5682 3.57526C3.3874 3.75699 3.24417 3.97254 3.14668 4.20962C3.04919 4.4467 2.99935 4.70066 3.00001 4.957V17.801C3.00001 18.884 3.87401 19.758 4.94701 19.758H15.72L15.215 17.999L16.432 19.13L17.581 20.194L19.625 22V4.957C19.6257 4.70066 19.5758 4.4467 19.4783 4.20962C19.3808 3.97254 19.2376 3.75699 19.0568 3.57526C18.876 3.39354 18.6612 3.2492 18.4246 3.1505C18.188 3.0518 17.9343 3.00066 17.678 3V3ZM14.01 15.407C14.01 15.407 13.668 14.999 13.384 14.636C14.628 14.284 15.103 13.506 15.103 13.506C14.713 13.762 14.343 13.944 14.01 14.068C12.7977 14.5754 11.4626 14.7138 10.172 14.466C9.69511 14.3723 9.22782 14.2351 8.77601 14.056C8.53772 13.9655 8.30614 13.8582 8.08301 13.735C8.05401 13.714 8.02601 13.706 7.99801 13.687C7.98303 13.6799 7.96973 13.6697 7.95901 13.657C7.78801 13.563 7.69301 13.497 7.69301 13.497C7.69301 13.497 8.14901 14.257 9.35601 14.618C9.07101 14.978 8.71901 15.407 8.71901 15.407C6.62001 15.34 5.82301 13.963 5.82301 13.963C5.82301 10.904 7.19101 8.425 7.19101 8.425C8.55901 7.398 9.86001 7.427 9.86001 7.427L9.95501 7.541C8.24501 8.036 7.45601 8.786 7.45601 8.786C7.45601 8.786 7.66601 8.672 8.01701 8.511C9.03301 8.065 9.84001 7.941 10.173 7.912C10.23 7.903 10.278 7.893 10.335 7.893C11.9822 7.67102 13.6572 7.98406 15.113 8.786C15.113 8.786 14.362 8.074 12.747 7.58L12.88 7.428C12.88 7.428 14.182 7.399 15.549 8.426C15.549 8.426 16.917 10.905 16.917 13.964C16.917 13.963 16.11 15.34 14.01 15.407V15.407Z" fill="white"/>
</svg>
