<svg width="19" height="19" viewBox="0 0 19 19" fill="none" xmlns="http://www.w3.org/2000/svg">
<path d="M17.2187 4.71846C16.651 4.96339 16.0331 5.13966 15.3967 5.20831C16.0574 4.81576 16.5522 4.19559 16.7883 3.46417C16.1682 3.83301 15.489 4.09166 14.7807 4.22862C14.4846 3.91213 14.1266 3.65999 13.7288 3.48793C13.331 3.31587 12.9021 3.22757 12.4687 3.22852C10.7153 3.22852 9.30517 4.64981 9.30517 6.39395C9.30517 6.63887 9.33486 6.8838 9.3831 7.11944C6.75761 6.98214 4.41601 5.72784 2.85927 3.80743C2.57562 4.29192 2.42697 4.84357 2.4288 5.40499C2.4288 6.50343 2.9873 7.47198 3.83896 8.04161C3.33706 8.02184 2.84692 7.88389 2.40839 7.63897V7.67794C2.40839 9.21612 3.4957 10.4908 4.94482 10.784C4.67273 10.8547 4.39283 10.8908 4.11171 10.8916C3.90576 10.8916 3.71093 10.8712 3.51425 10.8434C3.91503 12.0977 5.08212 13.0087 6.47187 13.0384C5.38456 13.89 4.02265 14.391 2.54384 14.391C2.27851 14.391 2.03359 14.3817 1.77939 14.3521C3.18212 15.252 4.84648 15.7715 6.63886 15.7715C12.4576 15.7715 15.6416 10.951 15.6416 6.7669C15.6416 6.6296 15.6416 6.49229 15.6323 6.35499C16.2483 5.90411 16.7883 5.34561 17.2187 4.71846Z" fill="white"/>
</svg>
