<svg width="19" height="19" viewBox="0 0 19 19" fill="none" xmlns="http://www.w3.org/2000/svg">
<path d="M17.4655 5.49404C17.3709 5.14158 17.1853 4.82015 16.9274 4.56192C16.6695 4.3037 16.3483 4.11774 15.996 4.02266C14.699 3.67383 9.5 3.67383 9.5 3.67383C9.5 3.67383 4.30098 3.67383 3.004 4.0208C2.6515 4.11558 2.33014 4.30143 2.0722 4.5597C1.81425 4.81797 1.6288 5.13957 1.53447 5.49219C1.1875 6.79102 1.1875 9.5 1.1875 9.5C1.1875 9.5 1.1875 12.209 1.53447 13.506C1.72559 14.2222 2.28965 14.7862 3.004 14.9773C4.30098 15.3262 9.5 15.3262 9.5 15.3262C9.5 15.3262 14.699 15.3262 15.996 14.9773C16.7122 14.7862 17.2744 14.2222 17.4655 13.506C17.8125 12.209 17.8125 9.5 17.8125 9.5C17.8125 9.5 17.8125 6.79102 17.4655 5.49404ZM7.84863 11.9863V7.01367L12.1533 9.48145L7.84863 11.9863Z" fill="white"/>
</svg>
