<svg width="30" height="30" viewBox="0 0 30 30" fill="none" xmlns="http://www.w3.org/2000/svg">
<path d="M27.2775 9.28875C27.1625 9.12259 27.009 8.98678 26.83 8.89295C26.6511 8.79912 26.4521 8.75007 26.25 8.75H9.16625L7.72375 5.2875C7.53461 4.83153 7.21434 4.44199 6.80353 4.16827C6.39273 3.89454 5.90989 3.74897 5.41625 3.75H2.5V6.25H5.41625L11.3462 20.4813C11.4412 20.7089 11.6015 20.9034 11.8068 21.0402C12.0121 21.177 12.2533 21.25 12.5 21.25H22.5C23.0212 21.25 23.4875 20.9263 23.6713 20.44L27.4213 10.44C27.4921 10.2508 27.5161 10.0472 27.491 9.84669C27.466 9.64619 27.3927 9.45474 27.2775 9.28875V9.28875ZM21.6337 18.75H13.3337L10.2087 11.25H24.4462L21.6337 18.75Z" fill="white"/>
<path d="M13.125 26.25C14.1605 26.25 15 25.4105 15 24.375C15 23.3395 14.1605 22.5 13.125 22.5C12.0895 22.5 11.25 23.3395 11.25 24.375C11.25 25.4105 12.0895 26.25 13.125 26.25Z" fill="white"/>
<path d="M21.875 26.25C22.9105 26.25 23.75 25.4105 23.75 24.375C23.75 23.3395 22.9105 22.5 21.875 22.5C20.8395 22.5 20 23.3395 20 24.375C20 25.4105 20.8395 26.25 21.875 26.25Z" fill="white"/>
<circle cx="25" cy="5" r="5" fill="#F7301D"/>
</svg>
