<svg width="30" height="30" viewBox="0 0 30 30" fill="none" xmlns="http://www.w3.org/2000/svg">
<path d="M15 2.5C11.5538 2.5 8.75 5.30375 8.75 8.75C8.75 12.1962 11.5538 15 15 15C18.4462 15 21.25 12.1962 21.25 8.75C21.25 5.30375 18.4462 2.5 15 2.5ZM15 12.5C12.9325 12.5 11.25 10.8175 11.25 8.75C11.25 6.6825 12.9325 5 15 5C17.0675 5 18.75 6.6825 18.75 8.75C18.75 10.8175 17.0675 12.5 15 12.5ZM26.25 26.25V25C26.25 20.1763 22.3237 16.25 17.5 16.25H12.5C7.675 16.25 3.75 20.1763 3.75 25V26.25H6.25V25C6.25 21.5538 9.05375 18.75 12.5 18.75H17.5C20.9462 18.75 23.75 21.5538 23.75 25V26.25H26.25Z" fill="white"/>
</svg>
